<svg width="24" height="24" viewBox="0 0 24 24" fill="none" xmlns="http://www.w3.org/2000/svg">
<path fill-rule="evenodd" clip-rule="evenodd" d="M12 1.00208C11.4742 1.00208 10.9577 1.14026 10.5021 1.40276L3.50386 5.40178L3.5 5.404C3.04439 5.66704 2.66597 6.04527 2.40269 6.50074C2.13941 6.95621 2.00054 7.47291 2 7.999V16.0011C2.00054 16.5271 2.13941 17.0438 2.40269 17.4993C2.66597 17.9548 3.04439 18.333 3.5 18.5961L3.50386 18.5983L10.5 22.5961L10.5019 22.5971C10.9575 22.8597 11.4741 22.998 12 22.998C12.5259 22.998 13.0426 22.8597 13.4982 22.5971L13.5 22.5961L20.4961 18.5983L20.5 18.5961C20.9556 18.333 21.334 17.9548 21.5973 17.4993C21.8606 17.0438 21.9995 16.5271 22 16.0011V7.999C21.9995 7.47291 21.8606 6.95621 21.5973 6.50074C21.334 6.04527 20.9556 5.66704 20.5 5.40399L13.5 1.404L13.4979 1.4028C13.0424 1.14027 12.5258 1.00208 12 1.00208ZM11.5 3.13605C11.652 3.04828 11.8245 3.00208 12 3.00208C12.1755 3.00208 12.348 3.04828 12.5 3.13605L12.5039 3.13827L19.5 7.13605L19.5016 7.13697C19.6527 7.22461 19.7783 7.35034 19.8658 7.50163C19.9535 7.65345 19.9998 7.82569 20 8.00105V15.999C19.9998 16.1744 19.9535 16.3466 19.8658 16.4984C19.7783 16.6497 19.6527 16.7754 19.5016 16.8631L19.5 16.864L12.5039 20.8618L12.5 20.864C12.348 20.9518 12.1755 20.998 12 20.998C11.8245 20.998 11.652 20.9518 11.5 20.864L4.5 16.864L4.49842 16.8631C4.34726 16.7754 4.22169 16.6497 4.13423 16.4984C4.04654 16.3467 4.00026 16.1746 4 15.9994V8.00062C4.00026 7.8254 4.04654 7.65333 4.13423 7.50163C4.22169 7.35033 4.34726 7.2246 4.49842 7.13696L4.5 7.13605L11.4961 3.13827L11.5 3.13605Z" fill="black"/>
</svg>
