<svg width="24" height="24" viewBox="0 0 24 24" fill="none" xmlns="http://www.w3.org/2000/svg">
<path d="M16.9957 1.06667C15.4225 1.053 13.9069 1.65777 12.7753 2.75072L12.765 2.76084L11.045 4.47084C10.6533 4.86022 10.6515 5.49338 11.0408 5.88505C11.4302 6.27671 12.0634 6.27855 12.455 5.88917L14.1696 4.18454C14.9235 3.45891 15.9318 3.0575 16.9783 3.0666C18.0271 3.07571 19.0304 3.49639 19.772 4.23802C20.5136 4.97965 20.9343 5.9829 20.9434 7.03169C20.9525 8.07774 20.5514 9.08561 19.8264 9.83938L16.8329 12.8329C16.4274 13.2386 15.9392 13.5524 15.4018 13.7529C14.8644 13.9533 14.2902 14.0359 13.7181 13.9949C13.146 13.9539 12.5894 13.7904 12.086 13.5154C11.5827 13.2404 11.1443 12.8603 10.8008 12.401C10.47 11.9588 9.84327 11.8684 9.40102 12.1992C8.95877 12.53 8.86843 13.1567 9.19923 13.599C9.71458 14.2879 10.3721 14.858 11.1271 15.2705C11.8821 15.683 12.717 15.9283 13.5752 15.9898C14.4334 16.0512 15.2947 15.9274 16.1008 15.6267C16.907 15.326 17.639 14.8555 18.2472 14.247L21.2471 11.2471L21.2593 11.2347C22.3522 10.1031 22.957 8.58749 22.9433 7.01431C22.9297 5.44113 22.2986 3.93625 21.1862 2.8238C20.0738 1.71136 18.5689 1.08034 16.9957 1.06667Z" fill="black"/>
<path d="M10.4247 8.01022C9.56657 7.94876 8.70522 8.07258 7.89911 8.37328C7.09305 8.67396 6.36109 9.14447 5.75285 9.75289L2.75285 12.7529L2.74067 12.7653C1.64772 13.8969 1.04295 15.4125 1.05662 16.9857C1.07029 18.5589 1.70131 20.0637 2.81376 21.1762C3.9262 22.2886 5.43108 22.9197 7.00426 22.9333C8.57744 22.947 10.0931 22.3422 11.2247 21.2493L11.2371 21.2371L12.9471 19.5271C13.3376 19.1366 13.3376 18.5034 12.9471 18.1129C12.5565 17.7224 11.9234 17.7224 11.5328 18.1129L9.82932 19.8164C9.07555 20.5414 8.06768 20.9425 7.02164 20.9334C5.97285 20.9243 4.9696 20.5036 4.22797 19.762C3.48634 19.0204 3.06566 18.0171 3.05655 16.9683C3.04746 15.9223 3.44851 14.9144 4.17355 14.1606L7.16706 11.1671C7.57257 10.7614 8.06071 10.4476 8.59811 10.2471C9.13552 10.0467 9.70976 9.96413 10.2819 10.0051C10.854 10.0461 11.4106 10.2096 11.9139 10.4846C12.4173 10.7596 12.8556 11.1397 13.1992 11.599C13.53 12.0412 14.1567 12.1316 14.5989 11.8008C15.0412 11.47 15.1315 10.8433 14.8007 10.401C14.2854 9.71206 13.6279 9.142 12.8729 8.72949C12.1178 8.31698 11.2829 8.07168 10.4247 8.01022Z" fill="black"/>
</svg>
