<svg width="24" height="24" viewBox="0 0 24 24" fill="none" xmlns="http://www.w3.org/2000/svg">
<path fill-rule="evenodd" clip-rule="evenodd" d="M12.5571 1.16939C12.3979 1.06242 12.2063 1 12.0001 1C11.7939 1 11.6022 1.06242 11.443 1.16939L1.47406 7.64923C1.36949 7.71381 1.27531 7.79877 1.19784 7.903C1.18802 7.91619 1.17854 7.92962 1.16939 7.94326C1.05239 8.11769 0.997521 8.31624 1.00009 8.51225V15.4878C0.997521 15.6838 1.05239 15.8823 1.16939 16.0567C1.17854 16.0704 1.18802 16.0838 1.19784 16.097C1.27531 16.2012 1.36949 16.2862 1.47405 16.3508L11.4431 22.8306C11.6023 22.9376 11.7939 23 12.0001 23C12.2063 23 12.3979 22.9376 12.5571 22.8306L22.5261 16.3508C22.6276 16.2881 22.7193 16.2062 22.7954 16.1062C22.8036 16.0954 22.8116 16.0845 22.8193 16.0735L22.8326 16.0541C22.9483 15.8803 23.0026 15.6828 23.0001 15.4878V8.51222C23.0026 8.31722 22.9483 8.11971 22.8326 7.94594L22.8193 7.92654C22.8116 7.91549 22.8036 7.90459 22.7954 7.89385C22.7193 7.7938 22.6276 7.71192 22.5261 7.64924L12.5571 1.16939ZM11.0001 3.84269L3.78775 8.53071L7.00009 10.7793L11.0001 7.97934V3.84269ZM13.0001 7.97934V3.84269L20.2124 8.53071L17.0001 10.7793L13.0001 7.97934ZM18.7439 12L21.0001 10.4207V13.5793L18.7439 12ZM12.0001 9.72066L8.74388 12L12.0001 14.2793L15.2563 12L12.0001 9.72066ZM3.00009 10.4207L5.25629 12L3.00009 13.5793V10.4207ZM7.00009 13.2207L3.78775 15.4693L11.0001 20.1573V16.0207L7.00009 13.2207ZM20.2124 15.4693L17.0001 13.2207L13.0001 16.0207V20.1573L20.2124 15.4693Z" fill="black"/>
</svg>
