<svg width="24" height="24" viewBox="0 0 24 24" fill="none" xmlns="http://www.w3.org/2000/svg">
<g clip-path="url(#clip0_1_3782)">
<path d="M8.08241 1.04658C9.50129 0.902096 10.9342 1.09689 12.263 1.6149C13.5918 2.13291 14.7785 2.95931 15.7252 4.02598C16.498 4.89665 17.0929 5.90706 17.4793 6.99999H18.0012C19.3784 7.00161 20.7131 7.47694 21.7813 8.34619C22.8494 9.21544 23.5861 10.4257 23.8675 11.7738C24.149 13.1219 23.9581 14.5258 23.3269 15.7498C22.6957 16.9739 21.6627 17.9435 20.4012 18.496C19.8953 18.7176 19.3056 18.4871 19.084 17.9812C18.8625 17.4753 19.093 16.8855 19.5989 16.664C20.4399 16.2957 21.1285 15.6492 21.5493 14.8332C21.9701 14.0172 22.0974 13.0813 21.9097 12.1825C21.7221 11.2838 21.231 10.477 20.5189 9.89746C19.8069 9.31804 18.9172 9.00116 17.9992 8.99999H16.74C16.284 8.99999 15.8858 8.69152 15.7718 8.25002C15.4944 7.17598 14.9658 6.18323 14.2294 5.3536C13.4931 4.52397 12.5701 3.88122 11.5366 3.47832C10.5031 3.07542 9.38859 2.92391 8.28502 3.03629C7.18145 3.14866 6.12038 3.5217 5.18928 4.12465C4.25818 4.7276 3.4837 5.5432 2.92969 6.50422C2.37567 7.46524 2.05799 8.54418 2.00281 9.65208C1.94763 10.76 2.15654 11.8651 2.61233 12.8765C3.06811 13.8878 3.75771 14.7763 4.6243 15.4688C5.05575 15.8135 5.12602 16.4428 4.78125 16.8743C4.43648 17.3057 3.80722 17.376 3.37577 17.0312C2.26159 16.1409 1.37496 14.9985 0.78895 13.6982C0.202942 12.398 -0.0656603 10.977 0.00528293 9.5526C0.0762262 8.12815 0.484683 6.74095 1.19699 5.50535C1.90929 4.26975 2.90505 3.22112 4.10218 2.4459C5.29931 1.67067 6.66353 1.19106 8.08241 1.04658Z" fill="black"/>
<path d="M7 16C7 15.4477 7.44772 15 8 15H8.01C8.56229 15 9.01 15.4477 9.01 16C9.01 16.5523 8.56229 17 8.01 17H8C7.44772 17 7 16.5523 7 16Z" fill="black"/>
<path d="M8 19C7.44772 19 7 19.4477 7 20C7 20.5523 7.44772 21 8 21H8.01C8.56229 21 9.01 20.5523 9.01 20C9.01 19.4477 8.56229 19 8.01 19H8Z" fill="black"/>
<path d="M11 18C11 17.4477 11.4477 17 12 17H12.01C12.5623 17 13.01 17.4477 13.01 18C13.01 18.5523 12.5623 19 12.01 19H12C11.4477 19 11 18.5523 11 18Z" fill="black"/>
<path d="M12 21C11.4477 21 11 21.4477 11 22C11 22.5523 11.4477 23 12 23H12.01C12.5623 23 13.01 22.5523 13.01 22C13.01 21.4477 12.5623 21 12.01 21H12Z" fill="black"/>
<path d="M15 16C15 15.4477 15.4477 15 16 15H16.01C16.5623 15 17.01 15.4477 17.01 16C17.01 16.5523 16.5623 17 16.01 17H16C15.4477 17 15 16.5523 15 16Z" fill="black"/>
<path d="M16 19C15.4477 19 15 19.4477 15 20C15 20.5523 15.4477 21 16 21H16.01C16.5623 21 17.01 20.5523 17.01 20C17.01 19.4477 16.5623 19 16.01 19H16Z" fill="black"/>
</g>
<defs>
<clipPath id="clip0_1_3782">
<rect width="24" height="24" fill="white"/>
</clipPath>
</defs>
</svg>
