<svg width="24" height="24" viewBox="0 0 24 24" fill="none" xmlns="http://www.w3.org/2000/svg">
<path fill-rule="evenodd" clip-rule="evenodd" d="M11.9999 1.00204C11.4741 1.00204 10.9576 1.14023 10.5021 1.40273L7.30625 3.22891C7.09612 3.27048 6.9001 3.37902 6.75251 3.54534L3.50378 5.40175L3.49992 5.40397C3.12992 5.61759 2.81082 5.90718 2.56296 6.25241C2.50263 6.31277 2.44909 6.3819 2.40433 6.45927C2.36579 6.52591 2.33579 6.59514 2.31399 6.66571C2.10826 7.0792 2.0004 7.53544 1.99992 7.99897L1.99992 11.9808C1.9997 11.993 1.9997 12.0052 1.99992 12.0173L1.99992 16.001C2.00046 16.5271 2.13934 17.0438 2.40262 17.4993C2.66589 17.9547 3.04432 18.333 3.49992 18.596L3.50378 18.5982L6.753 20.4549C6.8954 20.6148 7.08835 20.7286 7.30676 20.7714L10.4999 22.596L10.5018 22.5971C10.819 22.7799 11.1658 22.9025 11.5247 22.9601C11.666 23.0366 11.8279 23.08 11.9999 23.08C12.172 23.08 12.3338 23.0366 12.4752 22.9601C12.8341 22.9025 13.1809 22.7799 13.4981 22.5971L13.4999 22.596L16.6931 20.7714C16.9115 20.7286 17.1044 20.6148 17.2468 20.4549L20.4961 18.5982L20.4999 18.596C20.9555 18.333 21.334 17.9547 21.5972 17.4993C21.8605 17.0438 21.9994 16.5271 21.9999 16.001V12.0174C22.0001 12.0052 22.0001 11.993 21.9999 11.9808V7.99897C21.9994 7.53551 21.8916 7.07935 21.6859 6.66591C21.6642 6.59527 21.6341 6.52597 21.5955 6.45927C21.5508 6.38184 21.4972 6.31266 21.4368 6.25228C21.1889 5.9071 20.8699 5.61756 20.4999 5.40396L17.2473 3.54535C17.0997 3.37902 16.9037 3.27047 16.6936 3.22891L13.4999 1.40397L13.4978 1.40276C13.0423 1.14024 12.5257 1.00204 11.9999 1.00204ZM12.9999 20.5782L15.4999 19.1497V14.6C15.4999 14.2428 15.6904 13.9128 15.9996 13.7341L19.9999 11.4229V8.53754L12.9999 12.5868V20.5782ZM10.9999 12.5868L3.99992 8.53752V11.4229L8.0002 13.7341C8.30944 13.9128 8.49992 14.2428 8.49992 14.6V19.1497L10.9999 20.5782V12.5868ZM11.9999 10.8547L18.9609 6.82803L16.4505 5.39348L12.5002 7.67586C12.1907 7.8547 11.8092 7.8547 11.4996 7.67586L7.54938 5.39348L5.03892 6.82802L11.9999 10.8547ZM17.4999 18.0068L19.4999 16.864L19.5015 16.8631C19.6527 16.7754 19.7782 16.6497 19.8657 16.4984C19.9535 16.3466 19.9997 16.1743 19.9999 15.999V13.7327L17.4999 15.1771V18.0068ZM3.99992 15.9994V13.7327L6.49992 15.1771V18.0068L4.49992 16.864L4.49835 16.8631C4.34718 16.7754 4.22161 16.6497 4.13415 16.4984C4.04647 16.3467 4.00018 16.1746 3.99992 15.9994ZM14.4405 4.24495L12.4999 3.13603C12.3479 3.04826 12.1755 3.00204 11.9999 3.00204C11.8244 3.00204 11.6519 3.04825 11.4999 3.13602L11.4961 3.13825L9.55931 4.24495L11.9999 5.65508L14.4405 4.24495Z" fill="black"/>
</svg>
