<svg width="24" height="24" viewBox="0 0 24 24" fill="none" xmlns="http://www.w3.org/2000/svg">
<g clip-path="url(#clip0_241_11292)">
<circle cx="12" cy="12" r="12" fill="black"/>
<path d="M9.0809 6.81816V17H6.9282V8.86148H6.86854L4.53687 10.3231V8.41404L7.05746 6.81816H9.0809Z" fill="white"/>
<path d="M15.353 17.2237C14.4979 17.2204 13.7621 17.0099 13.1456 16.5923C12.5325 16.1747 12.0602 15.5698 11.7287 14.7777C11.4006 13.9855 11.2382 13.0326 11.2415 11.919C11.2415 10.8087 11.4056 9.86243 11.7337 9.08023C12.0651 8.29804 12.5374 7.7031 13.1506 7.29543C13.7671 6.88445 14.5012 6.67896 15.353 6.67896C16.2048 6.67896 16.9373 6.88445 17.5505 7.29543C18.1669 7.70642 18.6409 8.30301 18.9723 9.08521C19.3038 9.86409 19.4678 10.8087 19.4645 11.919C19.4645 13.036 19.2988 13.9905 18.9674 14.7826C18.6392 15.5748 18.1686 16.1797 17.5554 16.5973C16.9423 17.0149 16.2081 17.2237 15.353 17.2237ZM15.353 15.4389C15.9363 15.4389 16.402 15.1456 16.75 14.5589C17.098 13.9723 17.2704 13.0923 17.2671 11.919C17.2671 11.1468 17.1875 10.5038 17.0284 9.99003C16.8727 9.4763 16.6506 9.09018 16.3622 8.83165C16.0772 8.57313 15.7408 8.44387 15.353 8.44387C14.773 8.44387 14.309 8.73388 13.961 9.3139C13.613 9.89392 13.4373 10.7623 13.434 11.919C13.434 12.7012 13.5119 13.3541 13.6676 13.8778C13.8267 14.3982 14.0505 14.7893 14.3388 15.0511C14.6272 15.3096 14.9652 15.4389 15.353 15.4389Z" fill="white"/>
</g>
<defs>
<clipPath id="clip0_241_11292">
<rect width="24" height="24" fill="white"/>
</clipPath>
</defs>
</svg>
