<svg width="24" height="24" viewBox="0 0 24 24" fill="none" xmlns="http://www.w3.org/2000/svg">
<g clip-path="url(#clip0_241_11296)">
<circle cx="12" cy="12" r="12" fill="black"/>
<path d="M12.1119 17.1392C11.5883 17.1359 11.0828 17.048 10.5956 16.8757C10.1117 16.7033 9.67751 16.4233 9.29304 16.0355C8.90857 15.6477 8.60364 15.134 8.37826 14.4943C8.1562 13.8546 8.04517 13.0691 8.04517 12.1378C8.04848 11.2826 8.14626 10.5187 8.33849 9.84586C8.53404 9.16972 8.81245 8.59633 9.17372 8.12569C9.5383 7.65504 9.97414 7.29709 10.4812 7.05182C10.9883 6.80324 11.5568 6.67896 12.1865 6.67896C12.866 6.67896 13.4659 6.81153 13.9862 7.07668C14.5066 7.33852 14.9242 7.69482 15.2391 8.14557C15.5572 8.59633 15.7495 9.10178 15.8158 9.66191H13.6929C13.61 9.30727 13.436 9.02886 13.1709 8.82668C12.9057 8.6245 12.5776 8.52342 12.1865 8.52342C11.5236 8.52342 11.0198 8.81177 10.6751 9.38847C10.3338 9.96518 10.1597 10.749 10.1531 11.74H10.2227C10.3752 11.4384 10.5807 11.1816 10.8392 10.9694C11.101 10.754 11.3977 10.5899 11.7291 10.4773C12.0639 10.3612 12.4169 10.3032 12.7881 10.3032C13.3913 10.3032 13.9282 10.4458 14.3989 10.7308C14.8695 11.0125 15.2407 11.4003 15.5125 11.8942C15.7843 12.388 15.9202 12.9531 15.9202 13.5895C15.9202 14.2789 15.7594 14.892 15.4379 15.429C15.1197 15.9659 14.674 16.3868 14.1006 16.6917C13.5305 16.9933 12.8676 17.1425 12.1119 17.1392ZM12.102 15.4488C12.4334 15.4488 12.7301 15.3693 12.9919 15.2102C13.2537 15.0511 13.4592 14.8357 13.6084 14.5639C13.7575 14.2921 13.8321 13.9872 13.8321 13.6491C13.8321 13.3111 13.7575 13.0078 13.6084 12.7393C13.4625 12.4709 13.2604 12.2571 13.0018 12.098C12.7433 11.9389 12.4483 11.8594 12.1169 11.8594C11.8683 11.8594 11.638 11.9058 11.4258 11.9986C11.217 12.0914 11.0331 12.2206 10.874 12.3863C10.7182 12.5521 10.5956 12.7443 10.5061 12.963C10.4166 13.1785 10.3719 13.4088 10.3719 13.6541C10.3719 13.9822 10.4464 14.2822 10.5956 14.554C10.7481 14.8257 10.9535 15.0428 11.2121 15.2052C11.4739 15.3676 11.7705 15.4488 12.102 15.4488Z" fill="white"/>
</g>
<defs>
<clipPath id="clip0_241_11296">
<rect width="24" height="24" fill="white"/>
</clipPath>
</defs>
</svg>
