<svg width="24" height="24" viewBox="0 0 24 24" fill="none" xmlns="http://www.w3.org/2000/svg">
<g clip-path="url(#clip0_1_3922)">
<path d="M12.263 0.614901C10.9342 0.0968897 9.50129 -0.0979041 8.08241 0.0465762C6.66353 0.191057 5.29931 0.670674 4.10218 1.4459C2.90505 2.22112 1.90929 3.26975 1.19699 4.50535C0.484683 5.74095 0.0762262 7.12815 0.00528293 8.5526C-0.0656603 9.97705 0.202942 11.398 0.78895 12.6982C1.37496 13.9985 2.26159 15.1409 3.37577 16.0312C3.80722 16.376 4.43648 16.3057 4.78125 15.8743C5.12602 15.4428 5.05575 14.8135 4.6243 14.4688C3.75771 13.7763 3.06811 12.8878 2.61233 11.8765C2.15654 10.8651 1.94763 9.75999 2.00281 8.65208C2.05799 7.54418 2.37567 6.46524 2.92969 5.50422C3.4837 4.5432 4.25818 3.7276 5.18928 3.12465C6.12038 2.5217 7.18145 2.14866 8.28502 2.03629C9.38859 1.92391 10.5031 2.07542 11.5366 2.47832C12.5701 2.88122 13.4931 3.52397 14.2294 4.3536C14.9658 5.18323 15.4944 6.17598 15.7718 7.25002C15.8858 7.69152 16.284 7.99999 16.74 7.99999H17.9992C18.9172 8.00116 19.8069 8.31804 20.5189 8.89746C21.231 9.47696 21.7221 10.2838 21.9097 11.1825C22.0974 12.0813 21.9701 13.0172 21.5493 13.8332C21.1285 14.6492 20.4399 15.2957 19.5989 15.664C19.093 15.8856 18.8625 16.4753 19.084 16.9812C19.3056 17.4871 19.8953 17.7176 20.4012 17.496C21.6627 16.9435 22.6957 15.9739 23.3269 14.7498C23.9581 13.5258 24.149 12.1219 23.8675 10.7738C23.5861 9.4257 22.8494 8.21544 21.7813 7.34619C20.7131 6.47694 19.3784 6.00161 18.0012 5.99999H17.4793C17.0929 4.90706 16.498 3.89665 15.7252 3.02598C14.7785 1.95931 13.5918 1.13291 12.263 0.614901Z" fill="black"/>
<path d="M9 13C9 12.4477 8.55229 12 8 12C7.44772 12 7 12.4477 7 13V21C7 21.5523 7.44772 22 8 22C8.55229 22 9 21.5523 9 21V13Z" fill="black"/>
<path d="M17 13C17 12.4477 16.5523 12 16 12C15.4477 12 15 12.4477 15 13V21C15 21.5523 15.4477 22 16 22C16.5523 22 17 21.5523 17 21V13Z" fill="black"/>
<path d="M12 14C12.5523 14 13 14.4477 13 15V23C13 23.5523 12.5523 24 12 24C11.4477 24 11 23.5523 11 23V15C11 14.4477 11.4477 14 12 14Z" fill="black"/>
</g>
<defs>
<clipPath id="clip0_1_3922">
<rect width="24" height="24" fill="white"/>
</clipPath>
</defs>
</svg>
