<svg width="24" height="24" viewBox="0 0 24 24" fill="none" xmlns="http://www.w3.org/2000/svg">
<path fill-rule="evenodd" clip-rule="evenodd" d="M12.707 1.9829C12.5193 1.79525 12.2648 1.68989 11.9994 1.69C11.7341 1.69012 11.4796 1.79571 11.2922 1.98352L5.64301 7.64266C4.38408 8.90101 3.52594 10.505 3.17825 12.2507C2.83051 13.9967 3.00839 15.8066 3.68941 17.4515C4.37042 19.0964 5.52397 20.5023 7.00414 21.4915C8.48431 22.4807 10.2246 23.0087 12.0049 23.0087C13.7852 23.0087 15.5255 22.4807 17.0056 21.4915C18.4858 20.5023 19.6394 19.0964 20.3204 17.4515C21.0014 15.8066 21.1793 13.9967 20.8315 12.2507C20.4838 10.5048 19.6261 8.9013 18.367 7.6429L12.707 1.9829ZM12.0005 4.10484L16.9528 9.05711C17.9322 10.0359 18.5996 11.2834 18.87 12.6414C19.1405 13.9994 19.0022 15.4071 18.4725 16.6864C17.9428 17.9658 17.0456 19.0593 15.8944 19.8287C14.7431 20.5981 13.3896 21.0087 12.0049 21.0087C10.6202 21.0087 9.26666 20.5981 8.11542 19.8287C6.96417 19.0593 6.06697 17.9658 5.53729 16.6864C5.00761 15.4071 4.86926 13.9994 5.13973 12.6414C5.41019 11.2834 6.07733 10.0361 7.05676 9.05734L12.0005 4.10484Z" fill="black"/>
</svg>
