<svg width="24" height="24" viewBox="0 0 24 24" fill="none" xmlns="http://www.w3.org/2000/svg">
<path d="M10.229 4.19962C11.547 3.90139 12.9192 3.94191 14.2173 4.31741C15.5155 4.69291 16.6974 5.39113 17.6527 6.34694C17.6622 6.35643 17.6719 6.36572 17.6817 6.37482L20.5257 9H17C16.4477 9 16 9.44772 16 10C16 10.5523 16.4477 11 17 11H23C23.5523 11 24 10.5523 24 10V4C24 3.44772 23.5523 3 23 3C22.4477 3 22 3.44772 22 4V7.6391L19.0527 4.9185C17.8611 3.73122 16.3892 2.86362 14.7731 2.39617C13.1504 1.9268 11.4352 1.87614 9.78761 2.24893C8.14003 2.62171 6.61374 3.40579 5.35115 4.52799C4.08855 5.6502 3.13081 7.07396 2.56729 8.66642C2.38305 9.18707 2.65577 9.75849 3.17641 9.94273C3.69706 10.127 4.26849 9.85426 4.45273 9.33361C4.90354 8.05964 5.66973 6.92064 6.67981 6.02287C7.68988 5.12511 8.91092 4.49785 10.229 4.19962Z" fill="black"/>
<path d="M1 13C0.447715 13 0 13.4477 0 14V20C0 20.5523 0.447715 21 1 21C1.55228 21 2 20.5523 2 20V16.3609L4.94732 19.0815C6.13892 20.2688 7.61085 21.1364 9.22695 21.6038C10.8497 22.0732 12.5648 22.1239 14.2124 21.7511C15.86 21.3783 17.3863 20.5942 18.6489 19.472C19.9115 18.3498 20.8692 16.9261 21.4327 15.3336C21.617 14.8129 21.3442 14.2415 20.8236 14.0573C20.3029 13.873 19.7315 14.1458 19.5473 14.6664C19.0965 15.9404 18.3303 17.0794 17.3202 17.9771C16.3101 18.8749 15.0891 19.5022 13.771 19.8004C12.453 20.0986 11.0808 20.0581 9.78267 19.6826C8.4845 19.3071 7.30262 18.6089 6.34728 17.6531C6.3378 17.6436 6.32813 17.6343 6.31828 17.6252L3.47432 15H7C7.55228 15 8 14.5523 8 14C8 13.4477 7.55228 13 7 13H1Z" fill="black"/>
</svg>
