<svg width="24" height="24" viewBox="0 0 24 24" fill="none" xmlns="http://www.w3.org/2000/svg">
<g clip-path="url(#clip0_241_11293)">
<circle cx="12" cy="12" r="12" fill="black"/>
<path d="M11.888 6.67895C12.4117 6.67895 12.9155 6.76678 13.3994 6.94244C13.8866 7.1181 14.3208 7.39817 14.702 7.78264C15.0864 8.16711 15.3897 8.67753 15.6118 9.31389C15.8371 9.94694 15.9515 10.7242 15.9548 11.6456C15.9548 12.5106 15.857 13.2829 15.6615 13.9623C15.4692 14.6385 15.1925 15.2135 14.8312 15.6875C14.4699 16.1614 14.0341 16.5227 13.5237 16.7713C13.0133 17.0165 12.4432 17.1392 11.8135 17.1392C11.134 17.1392 10.5341 17.0083 10.0137 16.7464C9.49339 16.4813 9.07411 16.1217 8.75593 15.6676C8.44107 15.2102 8.25049 14.6965 8.1842 14.1264H10.3071C10.3899 14.4976 10.5639 14.786 10.8291 14.9914C11.0942 15.1936 11.4224 15.2947 11.8135 15.2947C12.4763 15.2947 12.9801 15.0064 13.3248 14.4297C13.6695 13.8496 13.8435 13.0558 13.8468 12.0483H13.7772C13.6248 12.3466 13.4193 12.6034 13.1608 12.8189C12.9022 13.031 12.6056 13.195 12.2708 13.3111C11.9394 13.4271 11.5864 13.4851 11.2119 13.4851C10.612 13.4851 10.0767 13.3442 9.60608 13.0625C9.13543 12.7807 8.76422 12.393 8.49244 11.8991C8.22066 11.4053 8.08477 10.8418 8.08477 10.2088C8.08145 9.52601 8.23889 8.91782 8.55707 8.3842C8.87525 7.85059 9.31938 7.43297 9.88946 7.13136C10.4628 6.82644 11.129 6.67563 11.888 6.67895ZM11.903 8.36929C11.5682 8.36929 11.2699 8.44883 11.0081 8.60793C10.7495 8.76702 10.544 8.98079 10.3916 9.24926C10.2424 9.51773 10.1695 9.81768 10.1728 10.1491C10.1728 10.4839 10.2458 10.7855 10.3916 11.0539C10.5407 11.3191 10.7429 11.5312 10.9981 11.6903C11.2566 11.8461 11.5516 11.924 11.8831 11.924C12.1316 11.924 12.362 11.8776 12.5741 11.7848C12.7862 11.692 12.9702 11.5644 13.126 11.402C13.2851 11.2362 13.4093 11.0457 13.4988 10.8302C13.5883 10.6148 13.6331 10.3861 13.6331 10.1441C13.6297 9.82265 13.5535 9.52767 13.4044 9.2592C13.2552 8.99074 13.0497 8.7753 12.7879 8.6129C12.5261 8.45049 12.2311 8.36929 11.903 8.36929Z" fill="white"/>
</g>
<defs>
<clipPath id="clip0_241_11293">
<rect width="24" height="24" fill="white"/>
</clipPath>
</defs>
</svg>
