<svg width="24" height="24" viewBox="0 0 24 24" fill="none" xmlns="http://www.w3.org/2000/svg">
<path fill-rule="evenodd" clip-rule="evenodd" d="M12.0811 2.50903C12.2746 2.85241 12.2484 3.27744 12.0141 3.59441C11.1598 4.75007 10.7488 6.17394 10.8557 7.60705C10.9625 9.04016 11.5802 10.3873 12.5964 11.4035C13.6126 12.4197 14.9597 13.0374 16.3929 13.1442C17.826 13.2511 19.2498 12.8401 20.4055 11.9858C20.7225 11.7515 21.1475 11.7253 21.4909 11.9188C21.8343 12.1124 22.0319 12.4895 21.9957 12.882C21.8209 14.7734 21.1111 16.5758 19.9493 18.0785C18.7875 19.5811 17.2218 20.7218 15.4353 21.3671C13.6489 22.0123 11.7156 22.1355 9.86177 21.7221C8.0079 21.3088 6.3101 20.376 4.96702 19.0329C3.62394 17.6898 2.69115 15.992 2.27778 14.1381C1.86441 12.2843 1.98757 10.351 2.63284 8.56457C3.27811 6.77814 4.4188 5.21243 5.92145 4.05064C7.4241 2.88884 9.22654 2.17903 11.1179 2.00424C11.5104 1.96797 11.8876 2.16564 12.0811 2.50903ZM9.31629 4.43906C8.53868 4.72041 7.8055 5.12203 7.14478 5.63287C5.94266 6.56231 5.0301 7.81488 4.51389 9.24402C3.99767 10.6732 3.89914 12.2198 4.22984 13.7029C4.56054 15.186 5.30677 16.5442 6.38123 17.6187C7.45569 18.6931 8.81394 19.4394 10.297 19.7701C11.7801 20.1008 13.3267 20.0022 14.7559 19.486C16.185 18.9698 17.4376 18.0572 18.367 16.8551C18.8779 16.1944 19.2795 15.4612 19.5608 14.6836C18.5077 15.0646 17.3781 15.2233 16.2441 15.1387C14.3333 14.9962 12.5371 14.1726 11.1822 12.8177C9.82729 11.4628 9.0037 9.6666 8.8612 7.75578C8.77664 6.62181 8.93528 5.49218 9.31629 4.43906Z" fill="black"/>
</svg>
