<svg width="24" height="24" viewBox="0 0 24 24" fill="none" xmlns="http://www.w3.org/2000/svg">
<g clip-path="url(#clip0_1_3954)">
<path d="M12.6272 2.7556C11.3819 2.20558 10.028 1.94523 8.66752 1.99416C7.30704 2.04308 5.97538 2.40001 4.7728 3.03806C3.57022 3.67611 2.52806 4.57865 1.72476 5.67776C0.921473 6.77686 0.377987 8.04388 0.135222 9.38342C-0.107542 10.723 -0.0432598 12.1001 0.323231 13.4112C0.689722 14.7223 1.34887 15.9332 2.25105 16.9527C2.61706 17.3663 3.24904 17.4049 3.66264 17.0389C4.07623 16.6729 4.11481 16.0409 3.74881 15.6273C3.04711 14.8343 2.53444 13.8926 2.24939 12.8728C1.96435 11.8531 1.91435 10.7819 2.10317 9.74007C2.29198 8.6982 2.71469 7.71275 3.33948 6.85789C3.96426 6.00303 4.77483 5.30105 5.71017 4.80479C6.64551 4.30852 7.68124 4.03092 8.7394 3.99286C9.79755 3.95481 10.8505 4.1573 11.8191 4.5851C12.7877 5.01289 13.6466 5.65484 14.3312 6.46261C15.0157 7.27038 15.5081 8.22293 15.7713 9.24854C15.8848 9.69077 16.2834 9.99999 16.7399 9.99999H17.9999C18.8502 9.99933 19.6793 10.2696 20.3656 10.7716C21.0518 11.2737 21.5602 11.9813 21.817 12.7919C22.0738 13.6024 22.0657 14.4737 21.7937 15.2793C21.5218 16.0849 21.0002 16.7829 20.3047 17.272C19.8529 17.5897 19.7442 18.2134 20.0619 18.6652C20.3796 19.117 21.0034 19.2257 21.4552 18.908C22.4984 18.1744 23.2808 17.1274 23.6887 15.919C24.0966 14.7106 24.1088 13.4036 23.7236 12.1878C23.3384 10.972 22.5758 9.9105 21.5464 9.15747C20.5173 8.40459 19.2751 7.99916 17.9999 7.99999H17.4804C17.1169 6.96755 16.5674 6.0079 15.8569 5.16954C14.9768 4.13098 13.8725 3.30562 12.6272 2.7556Z" fill="black"/>
<path d="M12 11C12.5523 11 13 11.4477 13 12V18.5858L15.2929 16.2929C15.6834 15.9024 16.3166 15.9024 16.7071 16.2929C17.0976 16.6834 17.0976 17.3166 16.7071 17.7071L12.7071 21.7071C12.3166 22.0976 11.6834 22.0976 11.2929 21.7071L7.29289 17.7071C6.90237 17.3166 6.90237 16.6834 7.29289 16.2929C7.68342 15.9024 8.31658 15.9024 8.70711 16.2929L11 18.5858V12C11 11.4477 11.4477 11 12 11Z" fill="black"/>
</g>
<defs>
<clipPath id="clip0_1_3954">
<rect width="24" height="24" fill="white"/>
</clipPath>
</defs>
</svg>
