<svg width="24" height="24" viewBox="0 0 24 24" fill="none" xmlns="http://www.w3.org/2000/svg">
<g clip-path="url(#clip0_241_11294)">
<circle cx="12" cy="12" r="12" fill="black"/>
<path d="M11.9955 17.1392C11.2299 17.1392 10.5488 17.0149 9.95222 16.7663C9.35894 16.5144 8.89327 16.1714 8.5552 15.7372C8.21713 15.303 8.0481 14.8108 8.0481 14.2606C8.0481 13.8364 8.14421 13.4469 8.33645 13.0923C8.532 12.7344 8.79715 12.4377 9.1319 12.2024C9.46666 11.9638 9.84118 11.8113 10.2555 11.745V11.6754C9.71192 11.566 9.27111 11.3025 8.93304 10.8849C8.59497 10.464 8.42594 9.97512 8.42594 9.4183C8.42594 8.89131 8.58006 8.42233 8.8883 8.01134C9.19653 7.59704 9.61912 7.27223 10.1561 7.03691C10.6963 6.79827 11.3095 6.67896 11.9955 6.67896C12.6816 6.67896 13.2931 6.79827 13.8301 7.03691C14.3703 7.27555 14.7945 7.60201 15.1028 8.01631C15.411 8.4273 15.5668 8.89463 15.5701 9.4183C15.5668 9.97843 15.3945 10.4673 15.0531 10.8849C14.7117 11.3025 14.2742 11.566 13.7406 11.6754V11.745C14.1482 11.8113 14.5178 11.9638 14.8492 12.2024C15.184 12.4377 15.4491 12.7344 15.6447 13.0923C15.8436 13.4469 15.9446 13.8364 15.948 14.2606C15.9446 14.8108 15.7739 15.303 15.4359 15.7372C15.0978 16.1714 14.6305 16.5144 14.0339 16.7663C13.4406 17.0149 12.7612 17.1392 11.9955 17.1392ZM11.9955 15.5582C12.3369 15.5582 12.6352 15.4969 12.8904 15.3743C13.1456 15.2483 13.3445 15.076 13.487 14.8572C13.6329 14.6352 13.7058 14.38 13.7058 14.0916C13.7058 13.7966 13.6312 13.5364 13.482 13.3111C13.3329 13.0824 13.1307 12.9034 12.8755 12.7741C12.6203 12.6415 12.327 12.5753 11.9955 12.5753C11.6674 12.5753 11.3741 12.6415 11.1156 12.7741C10.857 12.9034 10.6532 13.0824 10.5041 13.3111C10.3582 13.5364 10.2853 13.7966 10.2853 14.0916C10.2853 14.38 10.3566 14.6352 10.4991 14.8572C10.6416 15.076 10.8421 15.2483 11.1007 15.3743C11.3592 15.4969 11.6575 15.5582 11.9955 15.5582ZM11.9955 11.0092C12.2806 11.0092 12.5341 10.9512 12.7562 10.8352C12.9783 10.7192 13.1523 10.5585 13.2782 10.353C13.4042 10.1475 13.4671 9.91049 13.4671 9.64202C13.4671 9.37687 13.4042 9.14486 13.2782 8.946C13.1523 8.74382 12.9799 8.58639 12.7612 8.4737C12.5424 8.3577 12.2872 8.29969 11.9955 8.29969C11.7072 8.29969 11.452 8.3577 11.2299 8.4737C11.0079 8.58639 10.8338 8.74382 10.7079 8.946C10.5853 9.14486 10.5239 9.37687 10.5239 9.64202C10.5239 9.91049 10.5869 10.1475 10.7129 10.353C10.8388 10.5585 11.0128 10.7192 11.2349 10.8352C11.457 10.9512 11.7105 11.0092 11.9955 11.0092Z" fill="white"/>
</g>
<defs>
<clipPath id="clip0_241_11294">
<rect width="24" height="24" fill="white"/>
</clipPath>
</defs>
</svg>
