<svg width="24" height="24" viewBox="0 0 24 24" fill="none" xmlns="http://www.w3.org/2000/svg">
<g clip-path="url(#clip0_242_12354)">
<circle cx="12" cy="12" r="12" fill="black"/>
<path d="M11.998 17.2237C11.1429 17.2204 10.4071 17.0099 9.79064 16.5923C9.17748 16.1747 8.70518 15.5698 8.37374 14.7777C8.04562 13.9855 7.88321 13.0326 7.88652 11.919C7.88652 10.8087 8.05059 9.86243 8.37871 9.08023C8.71015 8.29804 9.18245 7.7031 9.79562 7.29543C10.4121 6.88445 11.1462 6.67896 11.998 6.67896C12.8498 6.67896 13.5823 6.88445 14.1955 7.29543C14.812 7.70642 15.2859 8.30301 15.6173 9.08521C15.9488 9.86409 16.1129 10.8087 16.1095 11.919C16.1095 13.036 15.9438 13.9905 15.6124 14.7826C15.2843 15.5748 14.8136 16.1797 14.2004 16.5973C13.5873 17.0149 12.8531 17.2237 11.998 17.2237ZM11.998 15.4389C12.5814 15.4389 13.047 15.1456 13.395 14.5589C13.7431 13.9723 13.9154 13.0923 13.9121 11.919C13.9121 11.1468 13.8325 10.5038 13.6735 9.99003C13.5177 9.4763 13.2956 9.09018 13.0073 8.83165C12.7222 8.57313 12.3858 8.44387 11.998 8.44387C11.418 8.44387 10.954 8.73388 10.606 9.3139C10.258 9.89392 10.0823 10.7623 10.079 11.919C10.079 12.7012 10.1569 13.3541 10.3127 13.8778C10.4718 14.3982 10.6955 14.7893 10.9838 15.0511C11.2722 15.3096 11.6102 15.4389 11.998 15.4389Z" fill="white"/>
</g>
<defs>
<clipPath id="clip0_242_12354">
<rect width="24" height="24" fill="white"/>
</clipPath>
</defs>
</svg>
