<svg width="24" height="24" viewBox="0 0 24 24" fill="none" xmlns="http://www.w3.org/2000/svg">
<g clip-path="url(#clip0_1_3704)">
<path fill-rule="evenodd" clip-rule="evenodd" d="M17.8099 2.15382C16.7208 1.88133 15.5744 1.94987 14.5256 2.35018C13.4768 2.75048 12.5762 3.46324 11.9457 4.39204C11.3221 5.31064 10.9924 6.39674 10.9998 7.5064C9.7425 7.4119 8.51256 7.0719 7.38071 6.5022C5.95775 5.78597 4.734 4.72895 3.81846 3.42527L3.0001 3.99998L2.10568 3.55277C2.09773 3.56867 2.09023 3.58472 2.08319 3.6009L2.08023 3.60765L2.06866 3.63458C2.0592 3.65683 2.04631 3.68764 2.03054 3.72657C1.99901 3.8044 1.95587 3.91487 1.90538 4.05452C1.80452 4.33349 1.67368 4.73076 1.54758 5.21835C1.29658 6.18888 1.05781 7.54227 1.12613 9.04539C1.19466 10.5529 1.57353 12.2316 2.57716 13.8163C3.32952 15.0042 4.41169 16.1054 5.91484 17.033C4.39647 17.7325 2.72666 18.0679 1.03985 18.0008C0.577127 17.9824 0.162301 18.2841 0.0372519 18.73C-0.0877967 19.1758 0.109649 19.6492 0.51446 19.8741C5.29097 22.5278 10.651 22.5525 14.845 20.3202C19.0632 18.075 22.0001 13.5999 22.0001 7.49998L22.0001 7.49668C21.9996 7.33442 21.9918 7.17236 21.977 7.01096C22.9426 5.93955 23.6292 4.64313 23.9717 3.2366L23.0001 2.99999L22.4237 2.18282C21.7152 2.68256 20.9449 3.08657 20.1327 3.38509C19.4724 2.79454 18.6759 2.37051 17.8099 2.15382ZM3.12407 8.95458C3.07437 7.86122 3.22106 6.84496 3.40475 6.04359C4.29735 6.95247 5.33595 7.71206 6.48152 8.28866C8.19909 9.15317 10.1038 9.57949 12.026 9.52965C12.568 9.51559 13.0001 9.07217 13.0001 8.52998V7.52998L13 7.51658C12.9905 6.80375 13.2001 6.10519 13.6005 5.51536C14.0009 4.92553 14.5727 4.47291 15.2388 4.2187C15.9048 3.96449 16.6328 3.92096 17.3244 4.094C18.016 4.26705 18.6377 4.64831 19.1055 5.18622C19.3637 5.48302 19.7718 5.60093 20.1484 5.48752C20.3801 5.41777 20.6093 5.34104 20.8358 5.25749C20.647 5.50415 20.4407 5.73829 20.2179 5.95798C19.9803 6.19236 19.8752 6.52987 19.9379 6.85774C19.9785 7.06999 19.9993 7.28555 20.0001 7.50165C19.9996 12.9008 17.4366 16.6751 13.9053 18.5547C11.3071 19.9376 8.13037 20.3233 4.9602 19.5157C6.2343 19.1488 7.4508 18.5815 8.56173 17.8274C8.86216 17.6234 9.02844 17.2727 8.99614 16.911C8.96384 16.5494 8.73804 16.2336 8.40624 16.0862C6.31614 15.1572 5.04039 13.9676 4.2668 12.7462C3.48918 11.5184 3.18055 10.1971 3.12407 8.95458Z" fill="black"/>
</g>
<defs>
<clipPath id="clip0_1_3704">
<rect width="24" height="24" fill="white"/>
</clipPath>
</defs>
</svg>
