<svg width="24" height="24" viewBox="0 0 24 24" fill="none" xmlns="http://www.w3.org/2000/svg">
<path fill-rule="evenodd" clip-rule="evenodd" d="M12.0001 8C9.79093 8 8.00007 9.79086 8.00007 12C8.00007 14.2091 9.79093 16 12.0001 16C14.2092 16 16.0001 14.2091 16.0001 12C16.0001 9.79086 14.2092 8 12.0001 8ZM10.0001 12C10.0001 10.8954 10.8955 10 12.0001 10C13.1046 10 14.0001 10.8954 14.0001 12C14.0001 13.1046 13.1046 14 12.0001 14C10.8955 14 10.0001 13.1046 10.0001 12Z" fill="black"/>
<path fill-rule="evenodd" clip-rule="evenodd" d="M23.8941 11.5521C23.8943 11.5525 23.8945 11.5528 23.0001 12C23.8945 12.4472 23.8943 12.4475 23.8941 12.4479L23.8925 12.4511L23.8891 12.458L23.8777 12.4802C23.8682 12.4987 23.8547 12.5247 23.8373 12.5576C23.8025 12.6233 23.752 12.7168 23.6861 12.834C23.5543 13.0684 23.3602 13.3985 23.1057 13.7925C22.598 14.5787 21.8432 15.6294 20.8546 16.6839C18.8956 18.7736 15.8996 21 12.0001 21C8.10056 21 5.10455 18.7736 3.14553 16.6839C2.1569 15.6294 1.40213 14.5787 0.894404 13.7925C0.639918 13.3985 0.44586 13.0684 0.31404 12.834C0.248092 12.7168 0.197608 12.6233 0.162822 12.5576C0.145425 12.5247 0.131943 12.4987 0.122406 12.4802L0.111058 12.458L0.107607 12.4511L0.106438 12.4488C0.106255 12.4484 0.105641 12.4472 1.00007 12C0.105641 11.5528 0.105809 11.5525 0.105993 11.5521L0.107607 11.5489L0.111058 11.542L0.122406 11.5198C0.131943 11.5013 0.145425 11.4753 0.162822 11.4424C0.197608 11.3767 0.248092 11.2832 0.31404 11.166C0.44586 10.9316 0.639918 10.6015 0.894404 10.2075C1.40213 9.42131 2.1569 8.3706 3.14553 7.31606C5.10455 5.22644 8.10056 3 12.0001 3C15.8996 3 18.8956 5.22644 20.8546 7.31606C21.8432 8.3706 22.598 9.42131 23.1057 10.2075C23.3602 10.6015 23.5543 10.9316 23.6861 11.166C23.752 11.2832 23.8025 11.3767 23.8373 11.4424C23.8547 11.4753 23.8682 11.5013 23.8777 11.5198L23.8891 11.542L23.8925 11.5489L23.8941 11.5521ZM2.57448 12.7075C2.39499 12.4296 2.2501 12.1889 2.14081 12C2.2501 11.8111 2.39499 11.5704 2.57448 11.2925C3.0355 10.5787 3.71823 9.6294 4.60461 8.68394C6.39559 6.77356 8.89958 5 12.0001 5C15.1006 5 17.6045 6.77356 19.3955 8.68394C20.2819 9.6294 20.9646 10.5787 21.4257 11.2925C21.6051 11.5704 21.75 11.8111 21.8593 12C21.75 12.1889 21.6051 12.4296 21.4257 12.7075C20.9646 13.4213 20.2819 14.3706 19.3955 15.3161C17.6045 17.2264 15.1006 19 12.0001 19C8.89958 19 6.39559 17.2264 4.60461 15.3161C3.71823 14.3706 3.0355 13.4213 2.57448 12.7075Z" fill="black"/>
<path d="M23.0001 12L23.8941 11.5521C24.0349 11.8336 24.0349 12.1664 23.8941 12.4479L23.0001 12Z" fill="black"/>
<path d="M0.105993 11.5521L1.00007 12L0.105641 12.4472C-0.0351227 12.1657 -0.0347706 11.8336 0.105993 11.5521Z" fill="black"/>
</svg>
