<svg width="24" height="24" viewBox="0 0 24 24" fill="none" xmlns="http://www.w3.org/2000/svg">
<path fill-rule="evenodd" clip-rule="evenodd" d="M19 1.17157C18.4973 1.17157 17.9994 1.27059 17.5349 1.46299C17.0705 1.65539 16.6484 1.93739 16.2929 2.29289L2.79292 15.7929C2.66986 15.9159 2.58105 16.069 2.53526 16.2369L1.03526 21.7369C0.940838 22.0831 1.03917 22.4534 1.29292 22.7071C1.54667 22.9609 1.91693 23.0592 2.26314 22.9648L7.76314 21.4648C7.93104 21.419 8.08407 21.3302 8.20713 21.2071L21.7071 7.7071C22.0626 7.3516 22.3446 6.92956 22.537 6.46507C22.7294 6.00058 22.8284 5.50275 22.8284 5C22.8284 4.49724 22.7294 3.99941 22.537 3.53492C22.3446 3.07043 22.0626 2.64839 21.7071 2.29289C21.3516 1.93739 20.9296 1.65539 20.4651 1.46299C20.0006 1.27059 19.5028 1.17157 19 1.17157ZM18.3003 3.31075C18.5222 3.21886 18.7599 3.17157 19 3.17157C19.2401 3.17157 19.4779 3.21886 19.6997 3.31075C19.9216 3.40264 20.1231 3.53732 20.2929 3.7071C20.4627 3.87689 20.5974 4.07845 20.6893 4.30029C20.7812 4.52212 20.8284 4.75988 20.8284 5C20.8284 5.24011 20.7812 5.47787 20.6893 5.69971C20.5974 5.92154 20.4627 6.1231 20.2929 6.29289L6.9807 19.6051L3.42524 20.5748L4.39491 17.0193L17.7071 3.7071C17.8769 3.53732 18.0785 3.40264 18.3003 3.31075Z" fill="black"/>
</svg>
