<svg width="24" height="24" viewBox="0 0 24 24" fill="none" xmlns="http://www.w3.org/2000/svg">
<g clip-path="url(#clip0_241_11299)">
<circle cx="12" cy="12" r="12" fill="black"/>
<path d="M12.0323 17.1392C11.3297 17.1392 10.7033 17.0099 10.1531 16.7514C9.6062 16.4929 9.17202 16.1366 8.85052 15.6825C8.52902 15.2285 8.36165 14.7081 8.34839 14.1214H10.4365C10.4597 14.5159 10.6254 14.8357 10.9336 15.081C11.2419 15.3262 11.6081 15.4489 12.0323 15.4489C12.3704 15.4489 12.6687 15.3743 12.9272 15.2251C13.1891 15.0727 13.3929 14.8622 13.5387 14.5937C13.6879 14.322 13.7625 14.0104 13.7625 13.6591C13.7625 13.3011 13.6862 12.9863 13.5338 12.7145C13.3846 12.4427 13.1775 12.2306 12.9123 12.0781C12.6472 11.9257 12.3439 11.8478 12.0025 11.8445C11.7042 11.8445 11.4142 11.9058 11.1325 12.0284C10.8541 12.151 10.637 12.3184 10.4812 12.5305L8.56714 12.1875L9.04938 6.81818H15.2738V8.57812H10.8242L10.5607 11.1285H10.6204C10.7994 10.8767 11.0695 10.6678 11.4308 10.5021C11.792 10.3364 12.1964 10.2535 12.6438 10.2535C13.257 10.2535 13.8039 10.3977 14.2845 10.6861C14.7651 10.9744 15.1446 11.3705 15.423 11.8743C15.7014 12.3748 15.8389 12.9515 15.8356 13.6044C15.8389 14.2905 15.6798 14.9003 15.3583 15.4339C15.0402 15.9642 14.5944 16.3819 14.021 16.6868C13.4509 16.9884 12.788 17.1392 12.0323 17.1392Z" fill="white"/>
</g>
<defs>
<clipPath id="clip0_241_11299">
<rect width="24" height="24" fill="white"/>
</clipPath>
</defs>
</svg>
