<svg width="24" height="24" viewBox="0 0 24 24" fill="none" xmlns="http://www.w3.org/2000/svg">
<path fill-rule="evenodd" clip-rule="evenodd" d="M13.9923 2.12403C14.0474 1.68353 13.8054 1.25946 13.3982 1.08269C12.991 0.905925 12.516 1.01878 12.2318 1.35981L2.23179 13.3598C1.98339 13.6579 1.92984 14.0728 2.09442 14.4242C2.259 14.7755 2.61199 15 3.00001 15H10.8672L10.0077 21.876C9.95267 22.3165 10.1946 22.7405 10.6018 22.9173C11.009 23.0941 11.484 22.9812 11.7682 22.6402L21.7682 10.6402C22.0166 10.3421 22.0702 9.92722 21.9056 9.57584C21.741 9.22446 21.388 9 21 9H13.1328L13.9923 2.12403ZM12 13H5.13505L11.5847 5.26045L11.0077 9.87596C10.9722 10.1606 11.0605 10.4468 11.2503 10.6618C11.4402 10.8768 11.7132 11 12 11H18.865L12.4154 18.7395L12.9923 14.124C13.0279 13.8394 12.9395 13.5532 12.7497 13.3382C12.5599 13.1232 12.2868 13 12 13Z" fill="black"/>
</svg>
